<?xml version="1.0" encoding="UTF-8"?><svg id="Layer_2" xmlns="http://www.w3.org/2000/svg" xmlns:xlink="http://www.w3.org/1999/xlink" viewBox="0 0 188.89 59.1"><defs><style>.cls-1{fill:url(#linear-gradient);}.cls-1,.cls-2,.cls-3,.cls-4,.cls-5,.cls-6{stroke-width:0px;}.cls-2{fill:url(#linear-gradient-4);}.cls-3{fill:url(#linear-gradient-2);}.cls-4{fill:url(#linear-gradient-3);}.cls-5{fill:url(#linear-gradient-5);}.cls-6{fill:#414042;}</style><linearGradient id="linear-gradient" x1="101.16" y1="30.84" x2="126.35" y2="5.64" gradientUnits="userSpaceOnUse"><stop offset="0" stop-color="#004c71"/><stop offset=".46" stop-color="#00719b"/><stop offset="1" stop-color="#00a0d2"/></linearGradient><linearGradient id="linear-gradient-2" x1="116.4" y1="32.69" x2="137.06" y2="12.04" xlink:href="#linear-gradient"/><linearGradient id="linear-gradient-3" x1="170.47" y1="37.4" x2="188.59" y2="19.28" xlink:href="#linear-gradient"/><linearGradient id="linear-gradient-4" x1="142.54" y1="35.38" x2="180.49" y2="-2.57" xlink:href="#linear-gradient"/><linearGradient id="linear-gradient-5" x1="0" y1="53.13" x2="96.32" y2="53.13" xlink:href="#linear-gradient"/></defs><g id="Layer_1-2"><path class="cls-6" d="M13.86,1.64c10.16,0,16.06,7.7,16.06,17.76s-5.9,17.6-16.06,17.6H0V1.64h13.86ZM13.86,30.69c5.9,0,8.93-5.23,8.93-11.29s-3.03-11.44-8.93-11.44h-6.72v22.74h6.72Z"/><path class="cls-6" d="M50.45,13.04h6.72v23.97h-6.72v-3.44c-1.59,2.46-4.67,4.05-7.9,4.05-6.62,0-11.55-5.13-11.55-12.57s4.82-12.63,11.7-12.63c3.08,0,6.16,1.33,7.75,3.8v-3.18ZM50.24,25.05c0-3.64-2.93-6.36-6.26-6.36s-6.11,2.87-6.11,6.36,2.62,6.31,6.16,6.31,6.21-2.87,6.21-6.31Z"/><path class="cls-6" d="M75.03,13.04v5.23h-5.08v18.73h-6.72v-18.73h-4.36v-5.23h4.36V4.31h6.72v8.72h5.08Z"/><path class="cls-6" d="M94.48,13.04h6.72v23.97h-6.72v-3.44c-1.59,2.46-4.67,4.05-7.9,4.05-6.62,0-11.55-5.13-11.55-12.57s4.82-12.63,11.7-12.63c3.08,0,6.16,1.33,7.75,3.8v-3.18ZM94.28,25.05c0-3.64-2.93-6.36-6.26-6.36s-6.11,2.87-6.11,6.36,2.62,6.31,6.16,6.31,6.21-2.87,6.21-6.31Z"/><path class="cls-1" d="M119.17,6.26c-3.85,0-5.08,2.1-5.13,4.98v1.8h5.23v5.23h-5.23v18.73h-6.72v-18.73h-4.52v-5.23h4.52v-1.75c0-7.18,3.7-11.29,10.52-11.29h2.87v6.26h-1.54Z"/><path class="cls-3" d="M138.21,13.19l-1.54,6.42c-1.44-.77-2.62-.87-3.44-.87-3.44,0-5.8,3.23-5.8,10.06v8.21h-6.72V13.04h6.67v5.13c1.33-4,4.05-5.75,7.03-5.75,1.28,0,2.72.21,3.8.77Z"/><path class="cls-4" d="M188.75,24.63c0-4.95-2.55-8.78-6.32-10.75l-4.6,4.48c2.32.47,3.97,2.11,4.14,4.48h-8.74l-8.34,8.13c2.04,4.09,6.24,6.65,11.44,6.65,4.21,0,8.37-1.8,10.62-4.82l-3.9-3.95c-1.49,1.69-3.85,2.82-6.31,2.82-3.18,0-5.44-1.64-6.16-4.46h18.01c.1-1.08.15-1.9.15-2.57Z"/><path class="cls-2" d="M186.17,3.49l-7.99.76c-.71.07-.94.99-.35,1.38l1.81,1.21-22.58,21.99h0c-1.5,1.68-3.87,2.8-6.33,2.78-3.18-.02-5.43-1.68-6.13-4.51l12.25.08,5.61-5.51c-1.26-5.65-6.17-9.27-12.07-9.31-6.82-.04-12.76,4.79-12.81,12.54-.05,7.39,5.31,12.61,12.7,12.66,4.21.03,6.76-1.01,10.66-4.75l22.61-22.02,1.2,1.85c.39.6,1.31.38,1.39-.33l.86-7.98c.05-.48-.35-.88-.82-.83ZM150.51,18.17c3.03.02,5.33,1.83,5.51,4.66l-11.39-.07c.74-3.23,3.11-4.6,5.88-4.58Z"/><path class="cls-6" d="M107.49,47.56v1.53h-2.36v7.02h-1.72v-7.02h-2.36v-1.53h6.44Z"/><path class="cls-6" d="M114.46,53.74h-4.35c.17.68.72,1.08,1.49,1.08.6,0,1.17-.27,1.53-.68l.94.96c-.55.73-1.55,1.17-2.57,1.17-1.79,0-3.09-1.25-3.09-3.04s1.43-3.05,3.08-3.05,3.01,1.18,3.01,2.95c0,.16-.01.36-.04.62ZM112.86,52.68c-.05-.68-.61-1.12-1.34-1.12-.67,0-1.24.33-1.41,1.12h2.75Z"/><path class="cls-6" d="M116.63,53.19c0-1.84,1.49-3.03,3.18-3.03,1.05,0,1.9.48,2.44,1.24l-1.23.86c-.26-.36-.74-.58-1.2-.58-.92,0-1.54.67-1.54,1.51s.62,1.55,1.54,1.55c.46,0,.94-.22,1.2-.58l1.23.86c-.55.76-1.39,1.24-2.44,1.24-1.69,0-3.18-1.23-3.18-3.06Z"/><path class="cls-6" d="M130.31,52.93v3.18h-1.62v-3.08c0-.91-.55-1.33-1.1-1.33s-1.3.32-1.3,1.36v3.04h-1.62v-8.94h1.62v4.07c.25-.74,1.18-1.07,1.74-1.07,1.51,0,2.31,1.03,2.29,2.77Z"/><path class="cls-6" d="M138.76,52.93v3.18h-1.62v-3.09c0-.91-.55-1.31-1.1-1.31s-1.3.31-1.3,1.36v3.04h-1.62v-5.79h1.62v.98c.25-.78,1.17-1.13,1.74-1.13,1.51,0,2.31,1.03,2.29,2.77Z"/><path class="cls-6" d="M141.2,53.22c0-1.84,1.46-3.05,3.11-3.05s3.11,1.22,3.11,3.05-1.46,3.04-3.11,3.04-3.11-1.22-3.11-3.04ZM145.78,53.22c0-.91-.66-1.54-1.46-1.54s-1.46.63-1.46,1.54.66,1.53,1.46,1.53,1.46-.63,1.46-1.53Z"/><path class="cls-6" d="M149.94,56.11v-8.94h1.62v8.94h-1.62Z"/><path class="cls-6" d="M154.08,53.22c0-1.84,1.46-3.05,3.11-3.05s3.11,1.22,3.11,3.05-1.46,3.04-3.11,3.04-3.11-1.22-3.11-3.04ZM158.66,53.22c0-.91-.66-1.54-1.46-1.54s-1.46.63-1.46,1.54.66,1.53,1.46,1.53,1.46-.63,1.46-1.53Z"/><path class="cls-6" d="M167.18,50.31h1.63v5.07c0,2.53-1.28,3.71-3.32,3.71-1.24,0-2.32-.69-2.82-1.77l1.35-.58c.25.53.84.91,1.46.91,1.04,0,1.7-.58,1.7-2.08v-.16c-.42.57-1.22.86-1.86.86-1.49,0-2.84-1.19-2.84-3.05s1.35-3.04,2.84-3.04c.66,0,1.44.27,1.86.84v-.69ZM167.13,53.21c0-.89-.74-1.53-1.5-1.53-.82,0-1.5.67-1.5,1.53s.68,1.54,1.5,1.54,1.5-.66,1.5-1.54Z"/><path class="cls-6" d="M171.45,48.32c0-.55.47-.97,1.03-.97s1.03.42,1.03.97-.46.98-1.03.98-1.03-.43-1.03-.98ZM171.68,56.11v-5.79h1.62v5.79h-1.62Z"/><path class="cls-6" d="M181.88,53.74h-4.35c.17.68.72,1.08,1.49,1.08.6,0,1.17-.27,1.53-.68l.94.96c-.55.73-1.55,1.17-2.57,1.17-1.79,0-3.09-1.25-3.09-3.04s1.43-3.05,3.08-3.05,3.01,1.18,3.01,2.95c0,.16-.01.36-.04.62ZM180.28,52.68c-.05-.68-.61-1.12-1.34-1.12-.67,0-1.24.33-1.41,1.12h2.75Z"/><path class="cls-6" d="M184.05,54.28h1.53c0,.33.29.69.86.69.47,0,.83-.24.83-.57,0-.25-.2-.37-.63-.48l-.77-.19c-1.49-.4-1.69-1.23-1.69-1.84,0-.89.93-1.74,2.27-1.74,1.05,0,2.3.51,2.28,1.89h-1.55c0-.4-.32-.61-.71-.61s-.67.21-.67.51c0,.27.25.41.57.5l.96.25c1.39.37,1.56,1.24,1.56,1.71,0,1.22-1.24,1.85-2.43,1.85s-2.39-.69-2.41-1.97Z"/><rect class="cls-5" x="0" y="52.42" width="96.32" height="1.43" rx=".71" ry=".71"/></g></svg>