<svg xmlns="http://www.w3.org/2000/svg" xmlns:xlink="http://www.w3.org/1999/xlink" viewBox="0 0 227.46 227.46"><defs><style>.cls-1{fill:#f6f6f6;}.cls-2{fill:url(#linear-gradient);}.cls-3{fill:url(#linear-gradient-2);}</style><linearGradient id="linear-gradient" x1="119.98" y1="132.59" x2="206.58" y2="132.59" gradientUnits="userSpaceOnUse"><stop offset="0" stop-color="#004c72"/><stop offset="0.49" stop-color="#006e9d"/><stop offset="1" stop-color="#0094cd"/></linearGradient><linearGradient id="linear-gradient-2" x1="20.87" y1="113.64" x2="200.23" y2="113.64" xlink:href="#linear-gradient"/></defs><g id="Layer_2" data-name="Layer 2"><g id="Layer_1-2" data-name="Layer 1"><rect class="cls-1" width="227.46" height="227.46" rx="38.46"/><path class="cls-2" d="M206.58,128.54c0-18-9.26-31.89-23-39L167,105.76c8.4,1.7,14.42,7.66,15,16.26H150.26L120,151.52c7.4,14.84,22.66,24.15,41.52,24.15,15.27,0,30.36-6.52,38.56-17.51l-14.15-14.35A31.09,31.09,0,0,1,163,154.06c-11.55,0-19.75-6-22.36-16.21H206C206.4,133.94,206.58,131,206.58,128.54Z"/><path class="cls-3" d="M197.23,51.8l-29,2.75a2.75,2.75,0,0,0-1.26,5L173.53,64,91.58,143.79h0a31.09,31.09,0,0,1-23,10.09c-11.55-.07-19.7-6.09-22.24-16.35l44.46.29,20.37-20C106.61,97.29,88.77,84.15,67.37,84c-24.77-.16-46.31,17.4-46.49,45.53C20.7,156.36,40.14,175.31,67,175.48c15.28.1,24.55-3.66,38.68-17.26L187.7,78.28,192.05,85a2.75,2.75,0,0,0,5-1.2l3.13-29A2.75,2.75,0,0,0,197.23,51.8ZM67.8,105.07c11,.07,19.33,6.64,20,16.9l-41.35-.28C49.14,110,57.74,105,67.8,105.07Z"/></g></g></svg>