<svg xmlns="http://www.w3.org/2000/svg" xmlns:xlink="http://www.w3.org/1999/xlink" viewBox="0 0 185.74 123.9"><defs><style>.cls-1{fill:url(#linear-gradient);}.cls-2{fill:url(#linear-gradient-2);}</style><linearGradient id="linear-gradient" x1="99.12" y1="80.82" x2="185.74" y2="80.82" gradientUnits="userSpaceOnUse"><stop offset="0" stop-color="#004c72"/><stop offset="0.49" stop-color="#006e9d"/><stop offset="1" stop-color="#0094cd"/></linearGradient><linearGradient id="linear-gradient-2" x1="0" y1="61.86" x2="179.38" y2="61.86" xlink:href="#linear-gradient"/></defs><g id="Layer_2" data-name="Layer 2"><g id="Layer_1-2" data-name="Layer 1"><path class="cls-1" d="M185.74,76.76c0-18-9.27-31.89-23-39L146.09,54c8.41,1.71,14.42,7.66,15,16.26H129.4L99.12,99.75c7.4,14.84,22.66,24.15,41.52,24.15,15.28,0,30.37-6.52,38.57-17.51L165.05,92a31.06,31.06,0,0,1-22.92,10.25c-11.55,0-19.74-6-22.35-16.21h65.4C185.55,82.17,185.74,79.18,185.74,76.76Z"/><path class="cls-2" d="M176.38,0l-29,2.75a2.74,2.74,0,0,0-1.26,5l6.58,4.38L70.71,92h0a31.07,31.07,0,0,1-23,10.1C36.17,102,28,96,25.48,85.75L70,86,90.32,66C85.75,45.51,67.9,32.37,46.51,32.23,21.73,32.07.19,49.63,0,77.76c-.17,26.83,19.27,45.78,46.09,45.95,15.28.1,24.55-3.66,38.69-17.26L166.85,26.5l4.35,6.72a2.75,2.75,0,0,0,5-1.2l3.13-29A2.75,2.75,0,0,0,176.38,0ZM46.93,53.29c11,.07,19.33,6.65,20,16.9l-41.36-.27C28.27,58.2,36.87,53.22,46.93,53.29Z"/></g></g></svg>